<svg id="Capa_1" fill="#888888" enable-background="new 0 0 512.005 512.005" height="512" viewBox="0 0 512.005 512.005" width="512" xmlns="http://www.w3.org/2000/svg"><g><path d="m464.005 223.162c-66.817 0-121.295-20.597-155.231-37.875-37.071-18.875-58.484-38.049-58.679-38.224-.771-.701-.735-.635-7.916-6.021-32.568-24.429-81.174-2.842-81.174 42.033 0 11.409-7.892 21.35-19.189 24.173-3.94.986-7.463 1.813-12.708.874-1.421-.393-2.841-.778-4.261-1.159-5.893-2.168-10.931-6.521-13.933-12.525l-8.611-17.225c-8.035-16.069-24.187-26.053-42.153-26.053-23.535 0-43.619 17.593-46.718 40.924-14.406 108.457-13.263 99.719-13.354 100.792-.106 1.214-.073-2.278-.073 43.286 0 24.813 20.187 45 45 45h107c2.328 0 4.625-.542 6.708-1.583l13.041-6.521c7.671-3.836 16.83-3.838 24.503.001l13.04 6.52c2.083 1.041 4.38 1.583 6.708 1.583h40c4.917 0 121.59-.445 223.023-39.188 19.725-7.535 32.977-26.749 32.977-47.812v-23c0-26.467-21.532-48-48-48zm-273-40.086v-1.45c0-17.053 19.435-26.883 33.176-16.582l6.318 4.739c1.899 1.674 8.169 7.045 18.363 14.309l-11.464 11.464c-9.478 9.476-2.636 25.606 10.606 25.606 3.839 0 7.678-1.465 10.606-4.394l16.007-16.007c7.03 4.139 13.868 7.869 21.058 11.516l-10.278 10.278c-5.858 5.857-5.858 15.355 0 21.213 5.858 5.859 15.355 5.858 21.213 0l18.224-18.224c35.955 14.585 83.615 27.617 139.17 27.617 9.925 0 18 8.075 18 18v10.443c-48.893 7.796-113.553 11.446-163.099 12.745-48.27-30.41-96.758-54.468-144.744-71.841 10.496-10.083 16.844-24.148 16.844-39.432zm-130.857-1.914c6.529 0 12.399 3.628 15.32 9.469l8.612 17.225c7.889 15.778 22.228 26.325 38.513 29.595 44.99 12.587 92.093 32.241 138.553 57.704-51.869.119-107.501-1.364-158.794-5.411-4.246-34.403-28.282-64.442-61.443-76.693l2.26-17.015c1.127-8.479 8.426-14.874 16.979-14.874zm-28.381 100.723 5.037-37.926c17.184 8.636 30.118 24.719 34.56 42.965-13.411-1.404-26.222-2.958-39.597-5.039zm224.238 69.277h-36.459l-9.872-4.936c-16.073-8.039-35.266-8.036-51.337-.001l-9.873 4.937h-103.459c-8.271 0-15-6.729-15-15v-24.147c113.028 17.285 323.213 17.174 438.292 1.943-96.141 36.711-211.146 37.203-212.292 37.204z"/></g></svg>